#!OML:ASF H:\GeneralSubjects\Female5\Project 1\Capture day 1\Session 1\Female5.ASF
:FULLY-SPECIFIED
:DEGREES
258
root -19.4256 15.405 1.50923 185.375 -70.1017 -180.558
lowerback 9.90644 1.93329 -0.45968
upperback -9.70694 2.48635 1.51024
thorax -16.6338 1.20288 1.41237
lowerneck -17.9981 1.77932 4.31925
upperneck 27.7592 2.78242 -7.00891
head 12.3286 0.543999 -3.0159
rclavicle 1.3418e-014 2.78299e-014
rhumerus -13.8066 45.7878 -66.7525
rradius 89.0613
rwrist -20.5756
rhand -38.6839 -29.9988
rfingers 7.12502
rthumb -11.6988 -59.6522
lclavicle 1.3418e-014 2.78299e-014
lhumerus -32.2385 -42.8062 94.4852
lradius 82.6498
lwrist -3.90835
lhand -35.0404 32.7764
lfingers 7.12502
lthumb -8.1838 422.598
rfemur 14.8643 1.02864 18.0916
rtibia 25.9688
rfoot -21.538 -25.5684
rtoes -13.5342
lfemur -25.0986 -1.09354 -26.7844
ltibia 21.4532
lfoot -28.1319 1.90653
ltoes -19.9798
259
root -19.0943 15.382 1.48282 181.768 -69.8203 -176.284
lowerback 9.37875 1.94372 0.933622
upperback -9.70976 2.77716 1.96155
thorax -16.2522 1.20375 1.0898
lowerneck -17.8238 1.97225 4.78047
upperneck 27.6184 3.00714 -7.31219
head 12.2661 0.658553 -3.17183
rclavicle 1.46107e-014 6.75868e-015
rhumerus -10.8216 44.566 -62.5534
rradius 89.9473
rwrist -18.5977
rhand -38.6092 -29.6052
rfingers 7.12502
rthumb -11.6268 -59.2627
lclavicle 1.46107e-014 6.75868e-015
lhumerus -33.5248 -39.795 93.1501
lradius 82.2063
lwrist -4.02505
lhand -34.5327 32.6447
lfingers 7.12502
lthumb -7.69377 422.485
rfemur 17.2173 4.03276 21.3378
rtibia 21.2412
rfoot -16.1456 -27.6718
rtoes -20.4971
lfemur -27.3261 -1.56472 -24.1412
ltibia 22.0471
lfoot -29.001 3.25473
ltoes -20.6374
260
root -18.7532 15.3598 1.46501 178.704 -69.2641 -172.428
lowerback 9.09483 1.95641 2.3295
upperback -9.8672 3.04928 2.38517
thorax -16.2205 1.18716 0.738521
lowerneck -17.6105 2.25694 5.24063
upperneck 27.5745 3.36517 -7.61451
head 12.2475 0.829239 -3.31046
rclavicle -3.57812e-014 -2.22639e-014
rhumerus -8.03279 43.0732 -58.558
rradius 90.9852
rwrist -16.3411
rhand -38.0682 -28.8894
rfingers 7.12502
rthumb -11.105 -58.5756
lclavicle -3.57812e-014 -2.22639e-014
lhumerus -35.1883 -36.4626 91.7851
lradius 81.7239
lwrist -3.99511
lhand -34.1514 32.6289
lfingers 7.12502
lthumb -7.32571 422.482
rfemur 19.2204 7.54938 24.7255
rtibia 16.5075
rfoot -22.9394 -22.5157
rtoes -6.36529
lfemur -29.6832 -1.93223 -21.4797
ltibia 22.7167
lfoot -30.164 3.44893
ltoes -19.7107
261
root -18.4067 15.3325 1.45295 175.94 -68.4307 -168.664
lowerback 8.73862 1.99644 3.95201
upperback -10.0666 3.36923 2.77668
thorax -16.1775 1.15782 0.222801
lowerneck -17.3912 2.60959 5.71016
upperneck 27.434 3.80823 -7.8724
head 12.1995 1.04834 -3.41682
rclavicle -6.84813e-014 -5.725e-014
rhumerus -5.3971 41.1921 -54.8513
rradius 92.0929
rwrist -14.009
rhand -38.9987 -28.7438
rfingers 7.12502
rthumb -12.0024 -58.3797
lclavicle -6.84813e-014 -5.725e-014
lhumerus -37.0743 -33.0757 90.2834
lradius 81.2629
lwrist -3.68594
lhand -33.9274 32.7018
lfingers 7.12502
lthumb -7.10946 422.562
rfemur 19.6286 9.64793 27.1275
rtibia 12.8025
rfoot -19.4576 -22.9764
rtoes -30.1394
lfemur -32.1933 -2.14477 -18.5665
ltibia 23.3211
lfoot -32.1043 5.33667
ltoes -21.926
262
root -18.0451 15.3008 1.44155 173.799 -67.4078 -165.475
lowerback 8.4132 2.04427 5.45014
upperback -10.1988 3.66397 3.1464
thorax -16.0735 1.13107 -0.237471
lowerneck -17.1804 3.0379 6.15177
upperneck 27.1317 4.32068 -7.95419
head 12.0946 1.32503 -3.43333
rclavicle 3.37934e-014 -3.02153e-014
rhumerus -2.96308 38.7517 -51.5446
rradius 93.3753
rwrist -12.0863
rhand -39.5787 -28.1069
rfingers 7.12502
rthumb -12.5617 -57.7093
lclavicle 3.37934e-014 -3.02153e-014
lhumerus -38.9083 -29.5978 88.6279
lradius 80.5953
lwrist -3.29502
lhand -33.7778 33.0008
lfingers 7.12502
lthumb -6.96505 422.866
rfemur 19.6466 11.5243 29.2521
rtibia 9.57323
rfoot -23.6612 -18.9629
rtoes -23.137
lfemur -34.6454 -2.42261 -15.4606
ltibia 23.6446
lfoot -33.8919 4.61621
ltoes -20.5447
